<?xml version="1.0" encoding="utf-8"?>
<!-- Generator: Adobe Illustrator 15.0.0, SVG Export Plug-In  -->
<!DOCTYPE svg PUBLIC "-//W3C//DTD SVG 1.1//EN" "http://www.w3.org/Graphics/SVG/1.1/DTD/svg11.dtd" [
	<!ENTITY ns_flows "http://ns.adobe.com/Flows/1.0/">
]>
<svg version="1.1"
	 xmlns="http://www.w3.org/2000/svg" xmlns:xlink="http://www.w3.org/1999/xlink" xmlns:a="http://ns.adobe.com/AdobeSVGViewerExtensions/3.0/"
	 x="0px" y="0px" width="99px" height="99px" viewBox="-6.463 -5.957 99 99"
	 overflow="visible" enable-background="new -6.463 -5.957 99 99" xml:space="preserve">
<defs>
</defs>
<circle fill="#FCEE21" fill-opacity="0.5" cx="83.61" cy="25.314" r="0.945"/>
<circle fill="#FCEE21" fill-opacity="0.5" cx="22.091" cy="51.46" r="0.945"/>
<circle fill="#FCEE21" fill-opacity="0.5" cx="52.059" cy="82.752" r="0.945"/>
<circle fill="#FCEE21" fill-opacity="0.5" cx="64.448" cy="8.136" r="0.945"/>
<circle fill="#FCEE21" fill-opacity="0.5" cx="83.14" cy="50.574" r="0.945"/>
<circle fill="#FCEE21" fill-opacity="0.5" cx="0.945" cy="55.558" r="0.945"/>
<circle fill="#FCEE21" fill-opacity="0.5" cx="13.043" cy="11.201" r="0.945"/>
<circle fill="#FCEE21" fill-opacity="0.5" cx="11.026" cy="27.331" r="0.945"/>
<circle fill="#FCEE21" fill-opacity="0.5" cx="57.399" cy="33.379" r="0.945"/>
<path fill="#FCEE21" fill-opacity="0.5" d="M64.346,21.875c0,0.685-0.553,1.24-1.24,1.24c-0.682,0-1.24-0.556-1.24-1.24
	c0-0.685,0.559-1.241,1.24-1.241C63.793,20.634,64.346,21.189,64.346,21.875z"/>
<path fill="#FCEE21" fill-opacity="0.5" d="M45.346,3.875c0,0.685-0.553,1.24-1.24,1.24c-0.682,0-1.24-0.556-1.24-1.24
	c0-0.685,0.559-1.241,1.24-1.241C44.793,2.634,45.346,3.189,45.346,3.875z"/>
<path fill="#FCEE21" fill-opacity="0.5" d="M32.346,74.875c0,0.685-0.553,1.24-1.24,1.24c-0.682,0-1.24-0.556-1.24-1.24
	c0-0.685,0.559-1.241,1.24-1.241C31.793,73.634,32.346,74.189,32.346,74.875z"/>
<path fill="#FCEE21" fill-opacity="0.5" d="M76.346,73.875c0,0.685-0.553,1.24-1.24,1.24c-0.682,0-1.24-0.556-1.24-1.24
	c0-0.685,0.559-1.241,1.24-1.241C75.793,72.634,76.346,73.189,76.346,73.875z"/>
<path fill="#FCEE21" fill-opacity="0.5" d="M6.156,4.375c0,0.856-0.691,1.55-1.55,1.55c-0.852,0-1.55-0.694-1.55-1.55
	c0-0.856,0.698-1.551,1.55-1.551C5.465,2.824,6.156,3.518,6.156,4.375z"/>
<path fill="#FCEE21" fill-opacity="0.5" d="M5.156,81.375c0,0.856-0.691,1.55-1.55,1.55c-0.852,0-1.55-0.694-1.55-1.55
	c0-0.856,0.698-1.551,1.55-1.551C4.465,79.824,5.156,80.518,5.156,81.375z"/>
<path fill="#FCEE21" fill-opacity="0.5" d="M39.156,42.375c0,0.856-0.691,1.55-1.551,1.55c-0.852,0-1.551-0.694-1.551-1.55
	c0-0.856,0.699-1.551,1.551-1.551C38.465,40.824,39.156,41.518,39.156,42.375z"/>
<circle fill="#FCEE21" fill-opacity="0.5" cx="83.61" cy="5.152" r="0.945"/>
<circle fill="#FCEE21" fill-opacity="0.5" cx="38.666" cy="24.727" r="0.532"/>
<circle fill="#FCEE21" fill-opacity="0.5" cx="64.877" cy="42.873" r="0.532"/>
<circle fill="#FCEE21" fill-opacity="0.5" cx="46.715" cy="50.051" r="0.532"/>
<circle fill="#FCEE21" fill-opacity="0.5" cx="16.488" cy="69.083" r="0.532"/>
<circle fill="#FCEE21" fill-opacity="0.5" cx="28.585" cy="0.532" r="0.532"/>
<circle fill="#FCEE21" fill-opacity="0.5" cx="49.926" cy="71.181" r="0.532"/>
<circle fill="#FCEE21" fill-opacity="0.5" cx="68.91" cy="65.051" r="0.531"/>
<circle fill="#FCEE21" fill-opacity="0.5" cx="2.375" cy="18.678" r="0.531"/>
</svg>
